<?xml version="1.0" standalone="no"?>
<!DOCTYPE svg PUBLIC "-//W3C//DTD SVG 20010904//EN"
 "http://www.w3.org/TR/2001/REC-SVG-20010904/DTD/svg10.dtd">
<svg version="1.0" xmlns="http://www.w3.org/2000/svg"
 width="516.000000pt" height="484.000000pt" viewBox="0 0 516.000000 484.000000"
 preserveAspectRatio="xMidYMid meet">

<g transform="translate(0.000000,484.000000) scale(0.100000,-0.100000)"
fill="#ffffff" stroke="none">
<path d="M3588 4810 c-162 -15 -322 -62 -495 -146 -225 -110 -236 -120 -1368
-1244 -653 -647 -894 -880 -912 -880 -17 0 -142 114 -214 196 -139 157 -213
293 -266 484 -13 51 -17 104 -18 240 0 152 3 186 23 260 47 171 130 316 261
453 205 215 464 326 758 327 221 0 388 -50 607 -183 59 -36 59 -36 85 -17 14
10 63 56 109 103 l84 84 -52 41 c-108 86 -415 224 -565 253 -91 18 -434 19
-530 1 -413 -75 -771 -356 -965 -757 -92 -191 -113 -299 -113 -585 0 -210 14
-298 68 -440 81 -212 161 -338 323 -509 134 -142 396 -391 410 -391 15 0 267
245 1057 1025 1123 1108 1199 1182 1299 1240 70 41 136 63 274 92 111 23 150
26 307 26 119 -1 206 -6 257 -17 313 -62 634 -355 744 -678 36 -107 47 -204
41 -351 -6 -154 -28 -276 -97 -552 -57 -226 -69 -265 -78 -265 -30 1 -376 84
-1042 250 -501 125 -1052 260 -1157 285 l-51 12 -651 -651 c-358 -359 -651
-658 -651 -666 0 -17 1074 -1090 1203 -1202 48 -42 107 -83 130 -92 23 -8 245
-69 492 -135 248 -66 659 -176 915 -245 256 -68 474 -126 484 -128 17 -3 36
64 201 727 100 402 275 1099 389 1550 114 451 214 865 223 920 17 116 19 364
3 457 -29 168 -123 389 -226 535 -101 144 -280 307 -440 402 -164 96 -312 144
-524 166 -145 16 -197 17 -332 5z m-888 -2035 c188 -49 216 -62 226 -100 3
-14 -8 -98 -26 -188 -42 -209 -375 -1537 -396 -1578 l-16 -31 -26 23 c-156
137 -952 929 -952 947 0 9 145 160 323 337 466 465 646 635 671 635 11 0 100
-21 196 -45z m1065 -620 c185 -49 288 -179 288 -367 0 -81 -3 -93 -37 -162
-39 -81 -84 -126 -173 -177 -63 -36 -68 -48 -124 -289 -22 -96 -47 -185 -55
-198 -35 -53 -122 -81 -192 -62 -48 12 -86 54 -103 111 -14 46 -9 83 48 330
l36 156 -43 63 c-141 207 -93 451 109 559 94 50 156 59 246 36z"/>
</g>
</svg>
